# xmcd
#
# Track frame offsets:
#	150
#	6610
#	28761
#	47723
#	48952
#	72609
#	93079
#	111143
#	117610
#	137700
#	156650
#	177479
#	178878
#	198509
#	220556
#	240310
#	258049
#
# Disc length: 3844 seconds
#
# Revision: 1
# Processed by: cddbd v1.5.1PL0 Copyright (c) Steve Scherf et al.
# Submitted via: audiograbber 1.80
#
DISCID=f90f0211
DTITLE=Michael Benjamin - Mika
DYEAR=1900
DGENRE=
TTITLE0=Intro (Haiti)
TTITLE1=Bel Fanm
TTITLE2=Yon Ti Chans
TTITLE3=Interlude 1
TTITLE4=I'm Sorry
TTITLE5=Pakab anko
TTITLE6=Sonje
TTITLE7=Interlude 2
TTITLE8=Si M' Te Gen Zel (Vole)
TTITLE9=DePale
TTITLE10=Count on me
TTITLE11=Interlude 3
TTITLE12=Paradi
TTITLE13=Fanatik
TTITLE14=MYC Party (Blokop Party)
TTITLE15=Over You
TTITLE16=Kanaval
EXTD=
EXTT0=
EXTT1=
EXTT2=
EXTT3=
EXTT4=
EXTT5=
EXTT6=
EXTT7=
EXTT8=
EXTT9=
EXTT10=
EXTT11=
EXTT12=
EXTT13=
EXTT14=
EXTT15=
EXTT16=
PLAYORDER=
